HIERARCHY
ROOT Hips
{
	OFFSET 0.00000 0.00000 0.00000
	CHANNELS 6 Xposition Yposition Zposition Zrotation Yrotation Xrotation 
	JOINT LHipJoint
	{
		OFFSET 0 0 0
		CHANNELS 3 Zrotation Yrotation Xrotation
		JOINT LeftUpLeg
		{
			OFFSET 1.62964 -1.40469 0.78906
			CHANNELS 3 Zrotation Yrotation Xrotation
			JOINT LeftLeg
			{
				OFFSET 2.29640 -6.30932 0.00000
				CHANNELS 3 Zrotation Yrotation Xrotation
				JOINT LeftFoot
				{
					OFFSET 2.29451 -6.30412 0.00000
					CHANNELS 3 Zrotation Yrotation Xrotation
					JOINT LeftToeBase
					{
						OFFSET 0.03611 -0.09921 1.56387
						CHANNELS 3 Zrotation Yrotation Xrotation
						End Site
						{
							OFFSET 0.00000 -0.00000 0.80291
						}
					}
				}
			}
		}
	}
	JOINT RHipJoint
	{
		OFFSET 0 0 0
		CHANNELS 3 Zrotation Yrotation Xrotation
		JOINT RightUpLeg
		{
			OFFSET -1.73712 -1.40469 0.78906
			CHANNELS 3 Zrotation Yrotation Xrotation
			JOINT RightLeg
			{
				OFFSET -2.28137 -6.26801 0.00000
				CHANNELS 3 Zrotation Yrotation Xrotation
				JOINT RightFoot
				{
					OFFSET -2.28681 -6.28298 0.00000
					CHANNELS 3 Zrotation Yrotation Xrotation
					JOINT RightToeBase
					{
						OFFSET -0.15927 -0.43759 1.61103
						CHANNELS 3 Zrotation Yrotation Xrotation
						End Site
						{
							OFFSET -0.00000 -0.00000 0.84630
						}
					}
				}
			}
		}
	}
	JOINT LowerBack
	{
		OFFSET 0 0 0
		CHANNELS 3 Zrotation Yrotation Xrotation
		JOINT Spine
		{
			OFFSET -0.04227 2.04338 -0.00225
			CHANNELS 3 Zrotation Yrotation Xrotation
			JOINT Spine1
			{
				OFFSET -0.02148 2.04482 -0.04273
				CHANNELS 3 Zrotation Yrotation Xrotation
				JOINT Neck
				{
					OFFSET 0 0 0
					CHANNELS 3 Zrotation Yrotation Xrotation
					JOINT Neck1
					{
						OFFSET 0.09180 1.44629 0.19359
						CHANNELS 3 Zrotation Yrotation Xrotation
						JOINT Head
						{
							OFFSET 0.00887 1.40645 0.14750
							CHANNELS 3 Zrotation Yrotation Xrotation
							End Site
							{
								OFFSET -0.00669 1.50671 0.03707
							}
						}
					}
				}
				JOINT LeftShoulder
				{
					OFFSET 0 0 0
					CHANNELS 3 Zrotation Yrotation Xrotation
					JOINT LeftArm
					{
						OFFSET 2.17674 1.86763 -0.06520
						CHANNELS 3 Zrotation Yrotation Xrotation
						JOINT LeftForeArm
						{
							OFFSET 4.65776 -0.00000 0.00000
							CHANNELS 3 Zrotation Yrotation Xrotation
							JOINT LeftHand
							{
								OFFSET 3.55539 -0.00000 0.00000
								CHANNELS 3 Zrotation Yrotation Xrotation
								JOINT LeftFingerBase
								{
									OFFSET 0 0 0
									CHANNELS 3 Zrotation Yrotation Xrotation
									JOINT LeftHandIndex1
									{
										OFFSET 0.70726 -0.00000 0.00000
										CHANNELS 3 Zrotation Yrotation Xrotation
										End Site
										{
											OFFSET 0.57022 -0.00000 0.00000
										}
									}
								}
								JOINT LThumb
								{
									OFFSET 0 0 0
									CHANNELS 3 Zrotation Yrotation Xrotation
									End Site
									{
										OFFSET 0.57892 -0.00000 0.57892
									}
								}
							}
						}
					}
				}
				JOINT RightShoulder
				{
					OFFSET 0 0 0
					CHANNELS 3 Zrotation Yrotation Xrotation
					JOINT RightArm
					{
						OFFSET -2.80694 1.55459 -0.32496
						CHANNELS 3 Zrotation Yrotation Xrotation
						JOINT RightForeArm
						{
							OFFSET -4.71925 -0.00000 -0.00000
							CHANNELS 3 Zrotation Yrotation Xrotation
							JOINT RightHand
							{
								OFFSET -3.56990 -0.00000 0.00000
								CHANNELS 3 Zrotation Yrotation Xrotation
								JOINT RightFingerBase
								{
									OFFSET 0 0 0
									CHANNELS 3 Zrotation Yrotation Xrotation
									JOINT RightHandIndex1
									{
										OFFSET -0.50776 -0.00000 0.00000
										CHANNELS 3 Zrotation Yrotation Xrotation
										End Site
										{
											OFFSET -0.40937 -0.00000 0.00000
										}
									}
								}
								JOINT RThumb
								{
									OFFSET 0 0 0
									CHANNELS 3 Zrotation Yrotation Xrotation
									End Site
									{
										OFFSET -0.41562 -0.00000 0.41562
									}
								}
							}
						}
					}
				}
			}
		}
	}
}
MOTION
Frames: 6
Frame Time: 0.0555556
0.00 0.00 0.00 181.7620 -62.2476 -137.2260 0.0000 0.0000 0.0000 -4.8313 -16.1409 -61.1118 4.8375 13.1984 40.1158 2.4647 14.4741 28.5575 6.5393 -14.9314 -47.1097 0.0000 0.0000 0.0000 19.7746 10.1900 -48.3431 -0.9192 -6.1084 17.0991 1.9433 -27.6802 4.9315 -1.1019 6.6699 -18.7411 -11.5438 -3.6817 -19.7754 -0.0473 -2.5733 -1.9390 5.7841 -1.7900 9.4617 -3.4050 -12.3772 -1.2273 22.8860 -17.3177 -3.2139 6.8224 -9.0338 1.6728 -0.0000 0.0000 0.0000 -17.8889 -4.2021 37.7454 107.0461 -58.8731 -74.7065 -0.0000 0.0000 -14.8211 31.0902 -29.5002 -16.5380 -7.1250 0.0000 -0.0000 0.0976 -3.4721 -0.1033 -0.0000 0.0000 0.0000 61.8077 -3.9596 41.3295 -23.0924 34.1897 -7.1902 0.0000 0.0000 5.1351 21.2368 -48.7422 -16.2852 7.1250 -0.0000 -0.0000 76.8282 -62.9705 -45.7134
0.00 0.00 0.00 186.1590 -54.2144 -139.8990 0.0000 0.0000 0.0000 2.5272 -17.8951 -59.8851 2.3303 9.5227 27.4444 1.7988 17.3077 25.2771 6.6901 -15.0653 -47.6924 0.0000 0.0000 0.0000 22.8238 9.4054 -50.5138 -0.8800 -5.9804 16.7275 1.5669 -25.5441 5.3355 -1.9542 8.7700 -25.0786 -11.8589 -3.7062 -17.7219 -0.5369 -2.6815 -0.9933 5.4251 -1.8642 9.4064 -3.9798 -9.8134 -0.1992 25.0290 -13.5197 -6.0890 8.0286 -7.5823 0.3795 -0.0000 -0.0000 0.0000 -23.7986 -9.4370 39.0288 86.6658 -59.9580 -57.1129 -0.0000 0.0000 -9.7886 31.5372 -31.1104 -17.5932 -7.1250 0.0000 -0.0000 0.0268 -5.3213 -0.0292 -0.0000 -0.0000 0.0000 60.4916 -7.6663 40.7071 -21.9021 32.8662 -6.5326 0.0000 0.0000 7.6484 24.5695 -48.9054 -19.0115 7.1250 -0.0000 -0.0000 79.3875 -62.0461 -46.7502
0.00 0.00 0.00 192.8240 -40.7196 -143.6110 0.0000 0.0000 0.0000 25.3711 -26.0801 -53.9676 0.4410 4.2612 11.8127 -2.7865 33.6315 7.5149 1.7078 -8.2289 -23.4116 0.0000 0.0000 0.0000 31.1902 9.6411 -53.3186 -0.8686 -5.9424 16.6175 -0.0231 -16.8776 12.0876 -3.0047 10.7026 -31.2833 -12.7919 -3.3518 -14.4582 -1.0082 -2.3780 0.0877 5.5840 -1.7502 8.7469 -4.8367 -6.8992 -1.8005 25.3731 -9.5048 -7.5867 8.4918 -5.7522 -0.2957 0.0000 0.0000 0.0000 -34.9878 -15.7439 39.6293 54.6291 -54.7000 -29.9130 -0.0000 0.0000 -5.4037 31.3399 -30.4834 -17.1670 -7.1250 0.0000 -0.0000 0.0443 -4.5953 -0.0477 0.0000 0.0000 0.0000 58.5492 -14.7882 37.8665 -19.7615 30.3539 -5.4103 0.0000 0.0000 10.3386 28.4936 -50.6945 -22.7832 7.1250 -0.0000 -0.0000 84.9579 -61.4720 -51.5227
0.00 0.00 0.00 195.3790 -32.3891 -142.6100 0.0000 0.0000 0.0000 28.0198 -23.5234 -58.6171 1.0536 6.5268 18.3207 0.1793 29.6382 21.9681 3.1632 -10.9547 -32.1274 0.0000 0.0000 0.0000 36.9129 10.1997 -59.3286 -1.7125 -8.2397 23.4446 -0.6555 -12.0394 15.6228 -3.4801 11.4344 -33.7592 -12.0295 -3.8282 -13.5924 -1.6422 -3.3402 -0.3555 4.2915 -2.1404 7.8573 -5.6540 -3.6497 -3.0965 26.0279 -5.3572 -7.0097 8.9985 -3.7075 -0.5038 -0.0000 0.0000 0.0000 -42.0054 -17.0520 40.4546 44.0664 -50.3028 -21.5180 -0.0000 0.0000 -3.4128 29.3489 -30.6913 -16.0136 -7.1250 0.0000 -0.0000 -1.1213 -4.2673 1.2018 -0.0000 0.0000 0.0000 57.1285 -20.1698 36.3376 -18.0514 28.2229 -4.5735 0.0000 0.0000 13.8058 27.3826 -50.6058 -21.8154 7.1250 -0.0000 -0.0000 84.1025 -61.7754 -51.0985
0.00 0.00 0.00 196.1390 -29.5197 -144.3120 0.0000 0.0000 0.0000 22.5086 -21.2629 -60.3326 2.1945 9.2601 26.6123 0.5545 25.0450 21.1414 1.5472 -7.8512 -22.2630 0.0000 0.0000 0.0000 37.2092 10.3029 -58.3127 -2.1848 -9.2408 26.5516 -0.9746 -12.8142 18.5375 -2.2817 9.4298 -27.1492 -11.6406 -4.1298 -10.8535 -1.6777 -4.1364 0.1333 4.0065 -2.4824 6.9492 -6.0502 -2.3313 -3.6925 25.9766 -3.5631 -7.3158 9.1174 -2.8545 -0.7773 0.0000 0.0000 0.0000 -46.0458 -18.6241 40.6903 39.4930 -47.7666 -18.0629 -0.0000 0.0000 -1.1964 27.9789 -30.9350 -15.2745 -7.1250 0.0000 -0.0000 -1.9416 -4.1650 2.0786 0.0000 0.0000 0.0000 55.1574 -23.2509 38.5607 -16.9315 26.7674 -4.0565 0.0000 0.0000 12.6455 30.4569 -50.2342 -24.3229 7.1250 -0.0000 -0.0000 85.4555 -60.7569 -50.9080
0.00 0.00 0.00 196.2560 -26.4171 -144.6930 0.0000 0.0000 0.0000 16.3813 -18.5584 -64.5563 5.0785 13.4716 41.1606 -0.7888 16.5894 0.1898 1.8471 -8.5401 -24.3669 0.0000 0.0000 0.0000 35.9281 11.6276 -59.5365 -3.4088 -11.3292 33.3983 -0.5200 -4.8160 12.8342 -1.6450 8.0838 -22.9690 -11.4095 -4.3571 -9.3005 -1.6519 -4.6460 0.5647 3.8942 -2.7208 6.6032 -5.4692 -1.1933 -1.9351 24.1116 -1.4097 -11.0451 8.5609 -2.1687 -2.5690 0.0000 0.0000 0.0000 -51.4392 -20.7449 40.4788 36.4155 -45.7968 -15.8196 -0.0000 -0.0000 1.3663 28.5899 -31.0347 -15.6939 -7.1250 0.0000 -0.0000 -1.6148 -4.4285 1.7354 0.0000 0.0000 0.0000 53.3031 -26.7242 39.7361 -15.8117 25.2647 -3.5652 0.0000 0.0000 11.8753 32.8012 -50.0462 -26.2911 7.1250 -0.0000 -0.0000 86.6572 -60.0199 -51.0021
